<svg xmlns="http://www.w3.org/2000/svg" xmlns:xlink="http://www.w3.org/1999/xlink" version="1.1" width="1000" height="1000" viewBox="0 0 1000 1000" xml:space="preserve">
<desc>Created with Fabric.js 3.5.0</desc>
<defs>
</defs>
<rect x="0" y="0" width="100%" height="100%" fill="#ffffff"/>
<g transform="matrix(1.7756 0 0 1.7756 500.0081 500.0081)" id="839395">
<path style="stroke: none; stroke-width: 1; stroke-dasharray: none; stroke-linecap: butt; stroke-dashoffset: 0; stroke-linejoin: miter; stroke-miterlimit: 4; is-custom-font: none; font-file-url: none; fill: rgb(255,0,0); fill-rule: nonzero; opacity: 1;" vector-effect="non-scaling-stroke" transform=" translate(-256, -256)" d="M 256 512 c 141.4 0 256 -114.6 256 -256 S 397.4 0 256 0 S 0 114.6 0 256 S 114.6 512 256 512 z M 232 344 V 280 H 168 c -13.3 0 -24 -10.7 -24 -24 s 10.7 -24 24 -24 h 64 V 168 c 0 -13.3 10.7 -24 24 -24 s 24 10.7 24 24 v 64 h 64 c 13.3 0 24 10.7 24 24 s -10.7 24 -24 24 H 280 v 64 c 0 13.3 -10.7 24 -24 24 s -24 -10.7 -24 -24 z" stroke-linecap="round"/>
</g>
</svg>